<svg xmlns="http://www.w3.org/2000/svg" viewBox="0 0 1440 320">
          <path
            fill="#000"
            fill-opacity="1"
            d="M0,192L24,197.3C48,203,96,213,144,192C192,171,240,117,288,106.7C336,96,384,128,432,149.3C480,171,528,181,576,154.7C624,128,672,64,720,85.3C768,107,816,213,864,234.7C912,256,960,192,1008,149.3C1056,107,1104,85,1152,96C1200,107,1248,149,1296,186.7C1344,224,1392,256,1416,272L1440,288L1440,0L1416,0C1392,0,1344,0,1296,0C1248,0,1200,0,1152,0C1104,0,1056,0,1008,0C960,0,912,0,864,0C816,0,768,0,720,0C672,0,624,0,576,0C528,0,480,0,432,0C384,0,336,0,288,0C240,0,192,0,144,0C96,0,48,0,24,0L0,0Z"
          ></path>
        </svg>