<svg xmlns="http://www.w3.org/2000/svg" viewBox="0 0 1440 320">
            <path
              fill="#000"
              fill-opacity="3"
              d="M0,64L34.3,64C68.6,64,137,64,206,58.7C274.3,53,343,43,411,80C480,117,549,203,617,218.7C685.7,235,754,181,823,176C891.4,171,960,213,1029,229.3C1097.1,245,1166,235,1234,197.3C1302.9,160,1371,96,1406,64L1440,32L1440,320L1405.7,320C1371.4,320,1303,320,1234,320C1165.7,320,1097,320,1029,320C960,320,891,320,823,320C754.3,320,686,320,617,320C548.6,320,480,320,411,320C342.9,320,274,320,206,320C137.1,320,69,320,34,320L0,320Z"
            ></path>
          </svg>